#N canvas 42 23 613 526 10;
#X obj 32 402 *~ 0.2;
#X obj 32 423 dac~ 1 2;
#X obj 128 280 +~;
#X obj 128 311 delwrite~ \$0-sammap 1000;
#X obj 147 208 delread4~ \$0-sammap;
#X obj 147 156 lop~ 10;
#X obj 287 216 lop~ 10;
#X obj 148 242 *~;
#X obj 147 186 *~ 200;
#X text 11 39 to scope channel 1;
#X text 11 28 Monitor left audio input;
#X text 244 112 delay effect;
#X text 244 131 controls for delay time and feedback;
#X obj 287 189 analogInput1~;
#X obj 147 127 analogInput2~;
#X obj 82 97 scope1~;
#X obj 45 66 audioInput~;
#X text 291 311 creates a delay line;
#X text 292 326 \$0-sammap is creating a name for the delay line;
#X text 292 341 1000 sets the delay line to 1000ms or 1s;
#X connect 0 0 1 0;
#X connect 0 0 1 1;
#X connect 2 0 3 0;
#X connect 2 0 0 0;
#X connect 4 0 7 0;
#X connect 5 0 8 0;
#X connect 6 0 7 1;
#X connect 7 0 2 1;
#X connect 8 0 4 0;
#X connect 13 0 6 0;
#X connect 14 0 5 0;
#X connect 16 0 2 0;
#X connect 16 0 15 0;
