#N canvas 654 22 450 300 10;
#X obj 70 51 inlet~;
#X obj 96 134 samphold~;
#X obj 74 225 outlet~;
#X obj 210 51 inlet;
#N canvas 0 22 450 568 DryWet 0;
#X obj 55 45 inlet~;
#X obj 90 298 outlet~;
#X obj 135 45 inlet~;
#X obj 225 45 inlet~;
#X obj 135 201 *~;
#X obj 90 249 +~;
#X obj 55 201 *~;
#X obj 70 150 -~;
#X obj 70 109 sig~ 1;
#X text 54 18 DRY INPUT;
#X text 135 18 WET INPUT;
#X text 223 18 CONTROL INPUT;
#X obj 150 149 *~ 0.7;
#X connect 0 0 6 0;
#X connect 2 0 4 0;
#X connect 3 0 7 1;
#X connect 3 0 12 0;
#X connect 4 0 5 1;
#X connect 5 0 1 0;
#X connect 6 0 5 0;
#X connect 7 0 6 1;
#X connect 8 0 7 0;
#X connect 12 0 4 1;
#X restore 74 186 pd DryWet;
#X obj 210 131 setThreshold;
#X obj 128 102 phasor~ 2000;
#X connect 0 0 1 0;
#X connect 0 0 4 0;
#X connect 1 0 4 1;
#X connect 3 0 5 0;
#X connect 4 0 2 0;
#X connect 5 2 4 2;
#X connect 6 0 1 1;
