#N canvas 119 323 575 444 10;
#X obj 94 42 inlet~;
#X obj 94 278 outlet~;
#N canvas 279 23 724 607 delayEngine 0;
#X obj 601 33 inlet;
#X obj 601 311 switch~;
#X obj 601 168 tgl 15 0 empty empty empty 17 7 0 10 -262144 -1 -1 0
1;
#X obj 63 34 inlet~;
#X obj 64 311 outlet~;
#X obj 354 33 inlet;
#X floatatom 174 160 5 0 0 0 - - -, f 5;
#X text 171 138 Feedback;
#N canvas 477 55 612 380 timeDivision 0;
#X obj 68 207 * 1000;
#X obj 68 178 / 128;
#X msg 68 140 60;
#X obj 90 108 bng 15 250 50 0 empty empty empty 17 7 0 10 -262144 -1
-1;
#X msg 104 140 128;
#X obj 68 323 outlet;
#X obj 179 77 inlet;
#X floatatom 68 301 5 0 0 0 - - -, f 5;
#X obj 90 77 loadbang;
#X obj 67 250 i;
#X obj 114 234 bng 15 250 50 0 empty empty empty 17 7 0 10 -262144
-1 -1;
#X text 35 28 Set audioDelay division according to the audioLoop bpm
;
#X obj 179 216 t b 0;
#X obj 68 278 * 0.05;
#X connect 0 0 9 0;
#X connect 0 0 9 1;
#X connect 1 0 0 0;
#X connect 2 0 1 0;
#X connect 3 0 2 0;
#X connect 3 0 4 0;
#X connect 4 0 1 1;
#X connect 6 0 12 0;
#X connect 7 0 5 0;
#X connect 8 0 3 0;
#X connect 9 0 13 0;
#X connect 10 0 9 0;
#X connect 12 0 10 0;
#X connect 12 1 13 1;
#X connect 13 0 7 0;
#X restore 354 168 pd timeDivision;
#X floatatom 354 239 5 0 0 0 - - -, f 5;
#X text 57 12 Audio Input;
#X text 310 8 Control Time Division;
#X text 549 7 Turn audioDelay DSP on/off;
#X obj 141 182 *~ 0.5;
#X obj 63 99 delwrite~ delayB 1000;
#X obj 64 253 delread~ delayB 1000;
#X connect 0 0 2 0;
#X connect 2 0 1 0;
#X connect 3 0 14 0;
#X connect 5 0 8 0;
#X connect 6 0 13 1;
#X connect 8 0 9 0;
#X connect 9 0 15 0;
#X connect 13 0 14 0;
#X connect 15 0 4 0;
#X connect 15 0 13 0;
#X restore 119 131 pd delayEngine;
#X floatatom 401 117 5 0 0 0 - - -, f 5;
#N canvas 341 228 450 568 DryWet 0;
#X obj 55 45 inlet~;
#X obj 90 298 outlet~;
#X obj 135 45 inlet~;
#X obj 225 45 inlet~;
#X obj 135 211 *~;
#X obj 90 259 +~;
#X obj 55 211 *~;
#X obj 70 160 -~;
#X text 54 18 DRY INPUT;
#X text 135 18 WET INPUT;
#X text 223 18 CONTROL INPUT;
#X obj 70 119 sig~ 1;
#X text 271 117 arbitrary value to scale the control input;
#X obj 225 115 *~ 0.5;
#X connect 0 0 6 0;
#X connect 2 0 4 0;
#X connect 3 0 13 0;
#X connect 4 0 5 1;
#X connect 5 0 1 0;
#X connect 6 0 5 0;
#X connect 7 0 6 1;
#X connect 11 0 7 0;
#X connect 13 0 7 1;
#X connect 13 0 4 1;
#X restore 94 220 pd DryWet;
#X text 66 16 Audio input;
#X text 204 16 Control Input;
#X floatatom 401 44 5 0 0 0 - - -, f 5;
#X text 381 15 timeDivision \; 0.25 = default;
#X obj 201 42 inlet~;
#X obj 201 72 setSensorThreshold~;
#X connect 0 0 2 0;
#X connect 0 0 4 0;
#X connect 2 0 4 1;
#X connect 3 0 2 1;
#X connect 4 0 1 0;
#X connect 7 0 3 0;
#X connect 9 0 10 0;
#X connect 10 0 2 2;
#X connect 10 1 2 2;
#X connect 10 2 4 2;
