#N canvas 181 132 451 426 10;
#X obj 27 400 outlet~;
#X obj 27 330 hip~, f 6;
#X obj 27 48 inlet~;
#X text 15 22 audio Input;
#X text 120 21 control Input (slider);
#X obj 121 50 inlet~;
#X obj 140 129 metro 100;
#X obj 140 101 loadbang;
#X obj 121 163 snapshot~;
#X obj 121 219 pow 4;
#X obj 121 251 * 15000;
#X obj 121 286 + 30;
#X text 191 163 Convert from signal to values;
#X text 195 249 scale range and add offset to control hipass filter
;
#X obj 102 329 vcf~ 25;
#X obj 102 361 *~ 2.5;
#X connect 1 0 0 0;
#X connect 2 0 1 0;
#X connect 2 0 14 0;
#X connect 5 0 8 0;
#X connect 6 0 8 0;
#X connect 7 0 6 0;
#X connect 8 0 9 0;
#X connect 9 0 10 0;
#X connect 10 0 11 0;
#X connect 11 0 1 1;
#X connect 11 0 14 1;
#X connect 14 0 15 0;
#X connect 15 0 0 0;
