#N canvas 0 22 586 530 10;
#X obj 94 42 inlet~;
#X obj 94 298 outlet~;
#N canvas 511 146 450 568 DryWet 0;
#X obj 55 45 inlet~;
#X obj 90 298 outlet~;
#X obj 135 45 inlet~;
#X obj 225 45 inlet~;
#X obj 90 259 +~;
#X obj 55 211 *~;
#X obj 70 160 -~;
#X obj 70 119 sig~ 1;
#X text 54 18 DRY INPUT;
#X text 135 18 WET INPUT;
#X text 223 18 CONTROL INPUT;
#X obj 135 211 *~;
#X text 271 117 arbitrary value to scale the control input;
#X obj 225 117 *~ 0.5;
#X connect 0 0 5 0;
#X connect 2 0 11 0;
#X connect 3 0 13 0;
#X connect 4 0 1 0;
#X connect 5 0 4 0;
#X connect 6 0 5 1;
#X connect 7 0 6 0;
#X connect 11 0 4 1;
#X connect 13 0 6 1;
#X connect 13 0 11 1;
#X restore 94 240 pd DryWet;
#X obj 212 72 setThreshold;
#X obj 212 42 inlet;
#X text 66 16 Audio input;
#X text 210 16 Control Input;
#N canvas 242 79 724 607 flangerEngine 1;
#X obj 611 33 inlet;
#X obj 638 311 switch~;
#X obj 638 169 tgl 15 0 empty empty empty 17 7 0 10 -262144 -1 -1 1
1;
#X obj 63 34 inlet~;
#X obj 64 311 outlet~;
#X obj 354 33 inlet;
#X floatatom 174 160 5 0 0 0 - - -, f 5;
#X text 171 138 Feedback;
#N canvas 477 55 612 380 timeDivision 0;
#X obj 68 207 * 1000;
#X obj 68 178 / 128;
#X msg 68 140 60;
#X obj 90 108 bng 15 250 50 0 empty empty empty 17 7 0 10 -262144 -1
-1;
#X msg 104 140 128;
#X obj 68 323 outlet;
#X obj 179 77 inlet;
#X floatatom 68 301 5 0 0 0 - - -, f 5;
#X obj 90 77 loadbang;
#X obj 67 250 i;
#X obj 114 234 bng 15 250 50 0 empty empty empty 17 7 0 10 -262144
-1 -1;
#X text 35 28 Set audioDelay division according to the audioLoop bpm
;
#X obj 68 278 * 0.25;
#X obj 179 216 t b 0;
#X connect 0 0 9 0;
#X connect 0 0 9 1;
#X connect 1 0 0 0;
#X connect 2 0 1 0;
#X connect 3 0 2 0;
#X connect 3 0 4 0;
#X connect 4 0 1 1;
#X connect 6 0 13 0;
#X connect 7 0 5 0;
#X connect 8 0 3 0;
#X connect 9 0 12 0;
#X connect 10 0 9 0;
#X connect 12 0 7 0;
#X connect 13 0 10 0;
#X connect 13 1 12 1;
#X restore 354 168 pd timeDivision;
#X floatatom 354 239 5 0 0 0 - - -, f 5;
#X text 57 12 Audio Input;
#X text 310 8 Control Time Division;
#X obj 141 182 *~ 0.5;
#N canvas 396 217 819 541 sineLfo 1;
#X obj 274 304 abs~;
#X obj 274 380 snapshot~;
#X obj 80 149 metro 1;
#X obj 80 96 tgl 15 0 empty empty empty 17 7 0 10 -262144 -1 -1 1 1
;
#X obj 274 271 *~ 0.01;
#X obj 274 68 inlet;
#X obj 274 149 / 127;
#X text 264 40 LFO freq Input;
#X text 339 147 normalize slider value to the range 0 - 1;
#X text 340 209 sine generator;
#X obj 674 66 inlet;
#X text 667 42 LFO amp;
#X floatatom 674 257 5 0 0 0 - - -, f 5;
#X text 344 342 amplitude Offset;
#X text 71 39 LFO on /off;
#X obj 80 65 inlet;
#X obj 274 428 outlet;
#X text 342 380 convert to numbers;
#X text 344 304 constrain signal to the positive range;
#X obj 274 343 +~ 0.001;
#X floatatom 274 97 5 0 0 0 - - -, f 5;
#X floatatom 674 100 5 0 0 0 - - -, f 5;
#X obj 274 211 osc~ 0.16;
#X connect 0 0 19 0;
#X connect 1 0 16 0;
#X connect 2 0 1 0;
#X connect 3 0 2 0;
#X connect 4 0 0 0;
#X connect 5 0 20 0;
#X connect 6 0 22 0;
#X connect 10 0 21 0;
#X connect 12 0 4 1;
#X connect 15 0 3 0;
#X connect 19 0 1 0;
#X connect 20 0 6 0;
#X connect 21 0 12 0;
#X connect 22 0 4 0;
#X restore 450 111 pd sineLfo;
#X obj 611 94 t 0 0;
#X floatatom 478 77 5 0 0 0 - - -, f 5;
#X floatatom 517 76 5 0 0 0 - - -, f 5;
#X text 478 56 freq;
#X text 517 56 depth;
#X text 558 7 Turn flanger DSP on/off;
#X obj 63 98 delwrite~ flangerA 1000;
#X obj 64 254 delread~ flangerA 1000;
#X connect 0 0 14 0;
#X connect 2 0 1 0;
#X connect 3 0 20 0;
#X connect 5 0 8 0;
#X connect 6 0 12 1;
#X connect 8 0 9 0;
#X connect 9 0 21 0;
#X connect 12 0 20 0;
#X connect 13 0 8 0;
#X connect 14 0 13 0;
#X connect 14 1 2 0;
#X connect 15 0 13 1;
#X connect 16 0 13 2;
#X connect 21 0 4 0;
#X connect 21 0 12 0;
#X restore 119 131 pd flangerEngine;
#X floatatom 401 117 5 0 0 0 - - -, f 5;
#X text 382 16 timeDivision;
#X floatatom 401 48 5 0 0 0 - - -, f 5;
#X connect 0 0 2 0;
#X connect 0 0 7 0;
#X connect 2 0 1 0;
#X connect 3 0 7 2;
#X connect 3 1 7 2;
#X connect 3 2 2 2;
#X connect 4 0 3 0;
#X connect 7 0 2 1;
#X connect 8 0 7 1;
#X connect 10 0 8 0;
