#N canvas 0 22 573 315 10;
#X obj 35 41 inlet~;
#X obj 36 247 outlet~;
#X obj 35 183 *~;
#X obj 35 212 +~ \$3;
#X obj 102 173 -~ \$3;
#X obj 102 152 sig~ \$4;
#X obj 35 82 -~;
#X obj 90 55 sig~ \$1;
#X obj 35 143 *~;
#X obj 128 90 sig~ \$2;
#X obj 128 111 -~ \$1;
#X obj 76 89 sig~ 1;
#X obj 76 110 /~;
#X text 208 39 map from one range to another;
#X text 207 66 first and second arguments are the input range;
#X text 207 86 third and forth arguments are the output range;
#X connect 0 0 6 0;
#X connect 2 0 3 0;
#X connect 3 0 1 0;
#X connect 4 0 2 1;
#X connect 5 0 4 0;
#X connect 6 0 8 0;
#X connect 7 0 6 1;
#X connect 8 0 2 0;
#X connect 9 0 10 0;
#X connect 10 0 12 1;
#X connect 11 0 12 0;
#X connect 12 0 8 1;
