#N canvas 490 22 571 373 10;
#X obj 48 48 inlet~;
#X text 107 48 signal rate input;
#X obj 48 219 *~;
#X obj 48 260 outlet~;
#X msg 73 152 1 200;
#X obj 73 193 line~;
#X msg 190 152 0 200;
#X obj 73 121 threshold~ \$1 100 \$1 100;
#X text 279 83 first argument sets the threshold;
#X text 279 103 signals under the threshold are muted;
#X connect 0 0 2 0;
#X connect 0 0 7 0;
#X connect 2 0 3 0;
#X connect 4 0 5 0;
#X connect 5 0 2 1;
#X connect 6 0 5 0;
#X connect 7 0 4 0;
#X connect 7 1 6 0;
