#N canvas 535 204 450 300 10;
#X obj 163 191 dac~ 1 2;
#X obj 118 28 inlet~;
#X obj 176 116 clip~ -1 1;
#X obj 176 82 *~ 1;
#X obj 215 26 inlet;
#N canvas 801 121 450 300 scaleSliderBetween0&1 0;
#X obj 65 114 / 127;
#X obj 65 18 inlet;
#X obj 65 173 outlet;
#X text 139 75 clip value to 127 (max slider value by default);
#X text 139 114 normalize between 0 and 1;
#X obj 65 77 clip 0 127;
#X connect 0 0 2 0;
#X connect 1 0 5 0;
#X connect 5 0 0 0;
#X restore 215 52 pd scaleSliderBetween0&1;
#X text 260 25 optional volume control;
#X connect 1 0 3 0;
#X connect 2 0 0 0;
#X connect 2 0 0 1;
#X connect 3 0 2 0;
#X connect 4 0 5 0;
#X connect 5 0 3 1;
