#N canvas 136 171 1276 755 10;
#X obj 102 183 inlet;
#X obj 732 180 inlet;
#X obj 732 442 soundfiler;
#X msg 732 400 read -resize \$1 \$2;
#X obj 732 332 pack s s, f 18;
#X obj 675 179 inlet;
#X text 550 151 input to receive array Name;
#X text 759 151 input to receive file Name;
#X obj 367 483 outlet~;
#X obj 292 183 inlet;
#X text 7 153 input to receive play;
#X text 862 399 Read message;
#X text 808 443 Read and write the audioFile into the Array;
#X text 862 333 Prepare read Message;
#X obj 382 400 tabread~ \$1;
#X obj 367 447 *~;
#X msg 382 281 set \$1;
#X text 352 28 This patch prepares and exectue the reading of an audio
file;
#X text 390 48 Play and retrig are executed until a stop message;
#N canvas 669 389 450 300 fadeInFadeOut 0;
#X obj 111 43 inlet;
#X obj 126 188 outlet~;
#X obj 126 148 line~;
#X msg 161 88 0 50;
#X msg 111 88 1 0;
#X obj 161 43 inlet;
#X text 94 22 FadeIn;
#X text 158 22 FadeOut;
#X connect 0 0 4 0;
#X connect 2 0 1 0;
#X connect 3 0 2 0;
#X connect 4 0 2 0;
#X connect 5 0 3 0;
#X restore 102 280 pd fadeInFadeOut;
#X obj 292 230 t b b;
#X obj 102 229 t b b;
#X obj 675 264 t s s;
#X obj 244 210 tgl 15 0 empty empty empty 17 7 0 10 -262144 -1 -1 0
1;
#X obj 675 226 symbol;
#X obj 732 225 symbol;
#X text 159 183 reverse playback;
#X text 808 466 Then send the lenght of the file in samples;
#N canvas 395 23 1006 754 playRetrig 0;
#X obj 468 52 inlet;
#X obj 307 49 inlet;
#X text 234 24 TRIG PLAY MESSAGE;
#X obj 365 49 inlet;
#X text 363 23 RELEASE RETRIG;
#X obj 440 418 pack 0 0 0;
#X msg 440 456 \$1 \, \$2 \$3;
#X obj 425 616 outlet~;
#X obj 440 492 line~;
#X text 388 639 Play instructions output;
#X obj 425 537 -~;
#X obj 425 571 abs~;
#X text 25 26 REVERSE ON/OFF;
#X obj 80 51 inlet;
#N canvas 556 23 684 752 reverse 0;
#X obj 160 118 tgl 15 0 empty empty empty 17 7 0 10 -262144 -1 -1 0
1;
#X obj 160 342 sig~ 0;
#X msg 160 262 0;
#X obj 160 162 sel 0;
#X obj 211 262 i;
#X obj 211 238 bng 15 250 50 0 empty empty empty 17 7 0 10 -262144
-1 -1;
#X obj 160 238 bng 15 250 50 0 empty empty empty 17 7 0 10 -262144
-1 -1;
#X obj 160 83 inlet;
#X text 155 56 ON/OFF;
#X obj 246 237 inlet;
#X text 284 235 lenght of the file in samples;
#X obj 160 387 outlet~;
#X text 44 427 output signal with amplitude 0 or equeal to the lenght
of the file (in samples);
#X text 201 162 If 0 send bang to the left \, else to the right;
#X connect 0 0 3 0;
#X connect 1 0 11 0;
#X connect 2 0 1 0;
#X connect 3 0 6 0;
#X connect 3 1 5 0;
#X connect 4 0 1 0;
#X connect 5 0 4 0;
#X connect 6 0 2 0;
#X connect 7 0 0 0;
#X connect 9 0 4 1;
#X restore 80 242 pd reverse;
#X floatatom 603 182 5 0 0 0 - - -, f 5;
#X text 599 163 SAMPLE RATE OF THE AUDIOFILE;
#N canvas 506 105 664 554 lenghtOfTheAudioFile 0;
#X obj 170 221 / 1000;
#X obj 149 248 / 44;
#X obj 129 295 bng 15 250 50 0 empty empty empty 17 7 0 10 -262144
-1 -1;
#X floatatom 120 173 5 0 0 0 - - -, f 5;
#X obj 120 221 i;
#X obj 153 195 bng 15 250 50 0 empty empty empty 17 7 0 10 -262144
-1 -1;
#X floatatom 120 354 5 0 0 0 - - -, f 5;
#X obj 170 119 inlet;
#X text 169 96 SAMPLE RATE OF THE SOUND;
#X obj 120 119 inlet;
#X text 56 95 LENGHT (samples);
#X obj 225 391 outlet;
#X text 225 416 LENGHT (ms);
#X text 79 416 LENGHT(samples);
#X text 54 27 This patch calculate the lenght of the auiod file in
samples and ms, f 71;
#X obj 120 391 outlet;
#X connect 0 0 1 1;
#X connect 1 0 2 0;
#X connect 1 0 11 0;
#X connect 2 0 6 0;
#X connect 3 0 4 0;
#X connect 3 0 4 1;
#X connect 4 0 1 0;
#X connect 4 0 6 0;
#X connect 5 0 4 0;
#X connect 6 0 15 0;
#X connect 7 0 0 0;
#X connect 7 0 5 0;
#X connect 9 0 3 0;
#X restore 468 225 pd lenghtOfTheAudioFile;
#X text 468 23 AUDIOFILE LENGHT (samples);
#N canvas 0 22 934 685 playRetrigRelease 0;
#X obj 69 145 tgl 15 0 empty empty empty 17 7 0 10 -262144 -1 -1 0
1;
#X floatatom 444 110 5 0 0 0 - - -, f 5;
#X msg 213 111 0;
#X msg 69 111 1;
#X obj 69 175 metro;
#X obj 69 211 outlet;
#X obj 69 52 inlet;
#X obj 444 51 inlet;
#X obj 213 51 inlet;
#X text 206 28 release;
#X text 415 27 lenght of file in ms;
#X text 53 27 play&retrig;
#X text 113 173 Retrig is achieved via a metro object;
#X connect 0 0 4 0;
#X connect 1 0 4 1;
#X connect 2 0 0 0;
#X connect 3 0 0 0;
#X connect 4 0 5 0;
#X connect 6 0 3 0;
#X connect 7 0 1 0;
#X connect 8 0 2 0;
#X restore 307 311 pd playRetrigRelease;
#X connect 0 0 17 0;
#X connect 1 0 19 0;
#X connect 3 0 19 1;
#X connect 5 0 6 0;
#X connect 6 0 8 0;
#X connect 8 0 10 1;
#X connect 10 0 11 0;
#X connect 11 0 7 0;
#X connect 13 0 14 0;
#X connect 14 0 10 0;
#X connect 15 0 17 1;
#X connect 17 0 5 1;
#X connect 17 0 14 1;
#X connect 17 1 19 2;
#X connect 17 1 5 2;
#X connect 19 0 5 0;
#X restore 244 280 pd playRetrig;
#X text 199 150 input to receive stop;
#X connect 0 0 21 0;
#X connect 1 0 25 0;
#X connect 2 0 28 3;
#X connect 3 0 2 0;
#X connect 4 0 3 0;
#X connect 5 0 24 0;
#X connect 9 0 20 0;
#X connect 14 0 15 1;
#X connect 15 0 8 0;
#X connect 16 0 14 0;
#X connect 19 0 15 0;
#X connect 20 0 19 1;
#X connect 20 1 28 2;
#X connect 21 0 19 0;
#X connect 21 1 28 1;
#X connect 22 0 16 0;
#X connect 22 1 4 1;
#X connect 23 0 28 0;
#X connect 24 0 22 0;
#X connect 25 0 4 0;
#X connect 28 0 14 0;
