#N canvas -30 23 1276 755 10;
#X msg 466 349 set \$1 \$2 \$3 \$4;
#X obj 466 317 pack 0.1 50 0.01 50;
#X obj 466 496 outlet;
#X obj 466 383 threshold~ 0.1 50 0.01 50;
#X obj 466 188 inlet;
#X obj 292 186 inlet~;
#X obj 613 496 outlet;
#X text 415 522 SENSOR TOUCHED output;
#X text 604 521 SENSOR RELEASED output;
#X text 259 163 SENSOR SIGNAL Input;
#X text 428 161 TOUCH THRESHOLD Input;
#X obj 787 497 outlet~;
#X obj 292 439 *~ 1;
#X obj 787 455 *~ 1;
#X obj 613 416 bng 15 250 50 0 empty empty empty 17 7 0 10 -262144
-1 -1;
#X text 414 80 It also detects RELEASED SENSOR events;
#X obj 466 417 bng 15 250 50 0 empty empty empty 17 7 0 10 -262144
-1 -1;
#X text 328 55 This patch detects a TOUCHED SENSOR event according
to a TOUCH THRESHOLD, f 70;
#X text 783 521 UNMODIFIED SENSOR SIGNAL output;
#X obj 466 259 t 0 0;
#X obj 540 288 - 0.1;
#X text 582 287 release threshold = touch threshold - 0.1;
#X connect 0 0 3 0;
#X connect 1 0 0 0;
#X connect 3 0 16 0;
#X connect 3 1 14 0;
#X connect 4 0 19 0;
#X connect 5 0 3 0;
#X connect 5 0 12 0;
#X connect 12 0 13 0;
#X connect 13 0 11 0;
#X connect 14 0 6 0;
#X connect 16 0 2 0;
#X connect 19 0 1 0;
#X connect 19 1 20 0;
#X connect 20 0 1 2;
