#N canvas 0 22 1109 722 10;
#X obj 245 423 inlet;
#X obj 462 118 inlet;
#X obj 462 312 soundfiler;
#X msg 462 270 read -resize \$1 \$2;
#X obj 462 232 pack s s, f 18;
#X obj 567 117 inlet;
#X text 282 116 input to receive array Name;
#X text 610 116 input to receive file Name;
#X obj 579 703 outlet~;
#X obj 410 423 inlet;
#X text 148 401 input to receive play;
#X text 313 403 input to receive stop;
#X text 374 272 Read message;
#X text 189 312 Read and write the audioFile into the Array;
#X text 326 230 Prepare read Message;
#N canvas 125 23 873 755 trigRetrig 0;
#X floatatom 508 90 5 0 0 0 - - -, f 5;
#X obj 508 167 / 1000;
#X text 546 89 SAMPLE RATE OF THE SOUND;
#X obj 487 194 / 44;
#X obj 471 309 bng 15 250 50 0 empty empty empty 17 7 0 10 -262144
-1 -1;
#X floatatom 458 119 5 0 0 0 - - -, f 5;
#X obj 458 167 i;
#X obj 491 141 bng 15 250 50 0 empty empty empty 17 7 0 10 -262144
-1 -1;
#X obj 458 53 inlet;
#X text 458 30 LENGHT OF THE SOUND in samples;
#X obj 281 51 inlet;
#X text 218 28 TRIG PLAY MESSAGE;
#X obj 281 281 tgl 15 0 empty empty empty 17 7 0 10 -262144 -1 -1 0
1;
#X obj 351 51 inlet;
#X text 349 28 RELEASE RETRIG;
#X floatatom 458 428 5 0 0 0 - - -, f 5;
#X floatatom 308 247 5 0 0 0 - - -, f 5;
#X msg 351 247 0;
#X msg 281 247 1;
#X obj 281 311 metro;
#X obj 430 538 pack 0 0 0;
#X msg 430 566 \$1 \, \$2 \$3;
#X obj 415 696 outlet~;
#X obj 430 592 line~;
#X obj 160 349 tgl 15 0 empty empty empty 17 7 0 10 -262144 -1 -1 0
1;
#X obj 415 627 -~;
#X obj 160 482 sig~ 0;
#X obj 415 661 abs~;
#X msg 160 442 0;
#X obj 160 382 sel 0;
#X text 105 29 REVERSE ON/OFF;
#X obj 160 51 inlet;
#X obj 211 442 i;
#X obj 211 418 bng 15 250 50 0 empty empty empty 17 7 0 10 -262144
-1 -1;
#X obj 160 418 bng 15 250 50 0 empty empty empty 17 7 0 10 -262144
-1 -1;
#X text 360 723 "Play instructions" output;
#X connect 0 0 1 0;
#X connect 0 0 7 0;
#X connect 1 0 3 1;
#X connect 3 0 4 0;
#X connect 3 0 20 2;
#X connect 3 0 16 0;
#X connect 4 0 15 0;
#X connect 5 0 6 0;
#X connect 5 0 6 1;
#X connect 6 0 3 0;
#X connect 6 0 15 0;
#X connect 7 0 6 0;
#X connect 8 0 5 0;
#X connect 10 0 18 0;
#X connect 12 0 19 0;
#X connect 13 0 17 0;
#X connect 15 0 32 1;
#X connect 15 0 20 1;
#X connect 16 0 19 1;
#X connect 17 0 12 0;
#X connect 18 0 12 0;
#X connect 19 0 20 0;
#X connect 20 0 21 0;
#X connect 21 0 23 0;
#X connect 23 0 25 1;
#X connect 24 0 29 0;
#X connect 25 0 27 0;
#X connect 26 0 25 0;
#X connect 27 0 22 0;
#X connect 28 0 26 0;
#X connect 29 0 34 0;
#X connect 29 1 33 0;
#X connect 31 0 24 0;
#X connect 32 0 26 0;
#X connect 33 0 32 0;
#X connect 34 0 28 0;
#X restore 387 550 pd trigRetrig;
#X obj 594 620 tabread~ \$1;
#X obj 579 667 *~;
#X msg 594 232 set \$1;
#X text 352 28 This patch prepares and exectue the reading of an audio
file;
#X text 390 48 Play and retrig are executed until a stop message;
#N canvas 669 389 450 300 fadeInFadeOut 0;
#X obj 111 43 inlet;
#X obj 126 188 outlet~;
#X obj 126 148 line~;
#X msg 161 88 0 50;
#X msg 111 88 1 0;
#X obj 161 43 inlet;
#X text 94 22 FadeIn;
#X text 158 22 FadeOut;
#X connect 0 0 4 0;
#X connect 2 0 1 0;
#X connect 3 0 2 0;
#X connect 4 0 2 0;
#X connect 5 0 3 0;
#X restore 245 550 pd fadeInFadeOut;
#X obj 410 500 t b b;
#X obj 245 499 t b b;
#X obj 567 204 t s s;
#X obj 387 457 tgl 15 0 empty empty empty 17 7 0 10 -262144 -1 -1 0
1;
#X obj 567 166 symbol;
#X obj 462 166 symbol;
#X text 282 455 reverse playback;
#X connect 0 0 23 0;
#X connect 1 0 26 0;
#X connect 2 0 15 3;
#X connect 3 0 2 0;
#X connect 4 0 3 0;
#X connect 5 0 27 0;
#X connect 9 0 22 0;
#X connect 15 0 16 0;
#X connect 16 0 17 1;
#X connect 17 0 8 0;
#X connect 18 0 16 0;
#X connect 21 0 17 0;
#X connect 22 0 21 1;
#X connect 22 1 15 2;
#X connect 23 0 21 0;
#X connect 23 1 15 1;
#X connect 24 0 4 1;
#X connect 24 1 18 0;
#X connect 25 0 15 0;
#X connect 26 0 24 0;
#X connect 27 0 4 0;
