#N canvas 58 22 693 772 10;
#X obj 65 311 vsl 15 128 0 127 0 0 empty empty empty 0 -9 0 10 -262144
-1 -1 0 1;
#X floatatom 134 427 5 0 0 0 - - -, f 5;
#N canvas 0 22 450 278 (subpatch) 0;
#X array array1 330819 float 2;
#X coords 0 1 330819 -1 200 140 1 0 0;
#X restore 41 99 graph;
#X obj 1159 688 audioOnOff;
#X obj 1159 664 tgl 15 0 empty empty empty 17 7 0 10 -262144 -1 -1
1 1;
#X obj 1159 639 loadbang;
#X obj 65 462 setThreshold;
#X obj 65 554 playAudioFile~, f 17;
#X text 39 428 0;
#X text 38 302 1;
#X text 36 361 0.5;
#X text 172 426 Set the Threshold between 0 and 1;
#X text 39 25 PLAYING AN AUDIO FILE WHEN ABOVE A THRESHOLD VALUE;
#X obj 65 632 output~;
#X msg 161 511 array1;
#X text 318 511 use the array1 to store the audioFile drumLoop0.wav
;
#X msg 221 511 drumloop1.wav;
#X connect 0 0 6 0;
#X connect 1 0 6 1;
#X connect 4 0 3 0;
#X connect 5 0 4 0;
#X connect 6 0 7 0;
#X connect 6 1 7 1;
#X connect 7 0 13 0;
#X connect 14 0 7 2;
#X connect 16 0 7 3;
