#N canvas 1500 23 990 722 10;
#X obj 138 99 vsl 15 128 0 127 0 0 empty empty empty 0 -9 0 10 -262144
-1 -1 0 1;
#X obj 844 674 audioOnOff;
#X obj 844 650 tgl 15 0 empty empty empty 17 7 0 10 -262144 -1 -1 1
1;
#X obj 844 625 loadbang;
#X obj 138 250 setThreshold;
#X obj 138 322 playAudioFile~, f 17;
#X obj 217 416 hsl 128 15 0 127 0 0 empty empty empty -2 -8 0 10 -262144
-1 -1 0 1;
#X text 212 393 0;
#X text 332 391 MAX;
#X obj 218 487 hsl 128 15 0 127 0 0 empty empty empty -2 -8 0 10 -262144
-1 -1 0 1;
#X text 213 464 0;
#X text 333 462 MAX;
#X text 31 432 AUDIO EFFECT 1;
#X text 30 502 AUDIO EFFECT 2;
#X msg 316 275 drumloop2.wav;
#X text 363 485 << MOVE THE SLIDER TO THE RIGHT TO ADD THE EFFECT;
#X text 360 416 << MOVE THE SLIDER TO THE RIGHT TO ADD THE EFFECT;
#X text 424 276 << Click to set the file being played;
#X msg 222 216 0.6;
#X text 169 130 << Playback will start only if this slider is above
the threshold;
#X text 256 216 << Click to set the threshold between 0 and 1;
#X text 109 215 0;
#X text 108 89 1;
#X text 106 148 0.5;
#X text 142 32 ADD AND CONTROL ONE OR MORE AUDIO EFFECTS;
#X text 401 589 effects with one below;
#X text 400 572 You can also replace one of the above;
#X obj 39 102 vsl 15 128 0 127 0 0 empty empty Volume 0 -9 0 10 -262144
-1 -1 0 1;
#X obj 138 566 output~;
#X obj 138 437 reverbControlRate~;
#X obj 138 509 helloFxControlRate~;
#X obj 403 611 distortionControlRate~;
#X obj 404 640 filterControlRate~;
#X connect 0 0 4 0;
#X connect 2 0 1 0;
#X connect 3 0 2 0;
#X connect 4 0 5 0;
#X connect 4 1 5 1;
#X connect 5 0 29 0;
#X connect 6 0 29 1;
#X connect 9 0 30 1;
#X connect 14 0 5 4;
#X connect 18 0 4 1;
#X connect 27 0 5 2;
#X connect 29 0 30 0;
#X connect 30 0 28 0;
