#N canvas 179 23 916 685 10;
#X text 33 32 =========;
#X obj 36 461 +~;
#X obj 109 403 osc~;
#X obj 109 444 *~;
#X obj 109 363 *~;
#X obj 174 385 *~;
#X obj 36 487 osc~;
#X obj 124 326 receive~ harmonicRatio;
#X obj 189 356 receive~ modulationIndex;
#X obj 164 204 send~ harmonicRatio;
#X obj 323 202 send~ modulationIndex;
#X text 33 55 Simple frequency modulation synthesis. Use the first
three;
#X text 33 69 analog inputs to change frequency \, harmonic ratio and
;
#X text 33 83 modulation index.;
#X text 445 15 ............................;
#X text 445 25 . ____ ._____ _ .......___ .;
#X text 445 35 .| __ )| ____| |....../ _ |.;
#X text 445 55 .| |_) | |___| |___ / ___ |.;
#X text 445 65 .|____/|_____|_____/_/..._|.io;
#X text 445 75 ............................;
#X text 445 45 .| __ || __|.| |...../ _| |.;
#X obj 36 259 sig~ 300;
#X obj 24 204 send~ amplitude;
#X obj 84 487 receive~ amplitude;
#X obj 36 512 *~;
#X obj 24 173 lop~ 10;
#X text 519 157 you now have 3 analog sensors;
#X obj 164 173 *~ 16;
#X obj 323 171 *~ 2000;
#X text 518 143 Hardware: connect a sensor to analog inputs 1-3;
#X text 33 22 SIMPLE FM;
#X obj 36 603 output~;
#X obj 24 143 analogInput0~;
#X obj 164 144 analogInput1~;
#X obj 323 146 analogInput2~;
#X connect 1 0 6 0;
#X connect 2 0 3 0;
#X connect 3 0 1 1;
#X connect 4 0 5 0;
#X connect 4 0 2 0;
#X connect 6 0 24 0;
#X connect 7 0 4 1;
#X connect 8 0 5 1;
#X connect 8 0 3 1;
#X connect 21 0 1 0;
#X connect 21 0 4 0;
#X connect 23 0 24 1;
#X connect 24 0 31 0;
#X connect 25 0 22 0;
#X connect 27 0 9 0;
#X connect 28 0 10 0;
#X connect 32 0 25 0;
#X connect 33 0 27 0;
#X connect 34 0 28 0;
