#N canvas 41 23 1239 755 10;
#X text 33 22 Simple FM;
#X text 33 32 =========;
#X obj 36 461 +~;
#X obj 109 403 osc~;
#X obj 109 444 *~;
#X obj 109 363 *~;
#X obj 174 385 *~;
#X obj 36 487 osc~;
#X obj 36 603 dac~ 1 2;
#X obj 124 326 receive~ harmonicRatio;
#X obj 189 356 receive~ modulationIndex;
#X obj 164 204 send~ harmonicRatio;
#X obj 323 202 send~ modulationIndex;
#X text 33 55 Simple frequency modulation synthesis. Use the first
three;
#X text 33 69 analog inputs to change frequency \, harmonic ratio and
;
#X text 33 83 modulation index.;
#X text 445 15 ............................;
#X text 445 25 . ____ ._____ _ .......___ .;
#X text 445 35 .| __ )| ____| |....../ _ |.;
#X text 445 55 .| |_) | |___| |___ / ___ |.;
#X text 445 65 .|____/|_____|_____/_/..._|.io;
#X text 445 75 ............................;
#X text 445 45 .| __ || __|.| |...../ _| |.;
#X obj 36 259 sig~ 300;
#X obj 24 204 send~ amplitude;
#X obj 84 487 receive~ amplitude;
#X obj 36 512 *~;
#X obj 24 173 lop~ 10;
#X text 633 192 you now have 3 analog sensors;
#X obj 755 446 loadbang;
#X obj 756 509 simple-sequencer;
#X obj 755 467 metro 500;
#X obj 164 173 *~ 16;
#X obj 323 171 *~ 2000;
#X text 634 262 how to map to 0-2000 range.;
#X text 633 179 Hardware: connect a sensor to analog inputs 1-3;
#X text 634 250 Task 1: look at analog input 3 on the scope and decide
;
#X text 634 295 over a threshold. Use [threshold~] and [vline~];
#X text 634 282 Task 2: use a pressure sensor to trigger an envelope
once;
#X obj 323 146 analogInput3~;
#X obj 164 144 analogInput2~;
#X obj 24 143 analogInput1~;
#X connect 2 0 7 0;
#X connect 3 0 4 0;
#X connect 4 0 2 1;
#X connect 5 0 6 0;
#X connect 5 0 3 0;
#X connect 7 0 26 0;
#X connect 9 0 5 1;
#X connect 10 0 6 1;
#X connect 10 0 4 1;
#X connect 23 0 2 0;
#X connect 23 0 5 0;
#X connect 25 0 26 1;
#X connect 26 0 8 1;
#X connect 26 0 8 0;
#X connect 27 0 24 0;
#X connect 29 0 31 0;
#X connect 31 0 30 0;
#X connect 32 0 11 0;
#X connect 33 0 12 0;
#X connect 39 0 33 0;
#X connect 40 0 32 0;
#X connect 41 0 27 0;
