#N canvas 47 30 1185 755 10;
#X obj 42 261 vsl 15 128 0 127 0 0 empty empty empty 0 -9 0 10 -262144
-1 -1 0 1;
#X floatatom 111 377 5 0 0 0 - - -, f 5;
#N canvas 0 22 450 278 (subpatch) 0;
#X array array3 82687 float 2;
#X coords 0 1 82687 -1 200 140 1 0 0;
#X restore 41 89 graph;
#X obj 1089 718 audioOnOff;
#X obj 1089 694 tgl 15 0 empty empty empty 17 7 0 10 -262144 -1 -1
1 1;
#X obj 1089 669 loadbang;
#X obj 261 638 hsl 128 15 0 127 0 0 empty empty empty -2 -8 0 10 -262144
-1 -1 0 1;
#X obj 42 412 setThreshold;
#X obj 260 594 hsl 128 15 0 127 0 0 empty empty empty -2 -8 0 10 -262144
-1 -1 0 1;
#X obj 260 550 hsl 128 15 0 127 0 0 empty empty empty -2 -8 0 10 -262144
-1 -1 0 1;
#X obj 42 564 echoA~;
#X obj 42 609 flangerA~;
#X obj 42 654 reverbA~;
#X obj 462 261 vsl 15 128 0 127 0 0 empty empty empty 0 -9 0 10 -262144
-1 -1 0 1;
#X floatatom 531 377 5 0 0 0 - - -, f 5;
#N canvas 0 22 450 278 (subpatch) 0;
#X array array4 330819 float 2;
#X coords 0 1 330819 -1 200 140 1 0 0;
#X restore 461 89 graph;
#X obj 462 412 setThreshold;
#X obj 42 505 +~;
#X obj 462 464 playAudioFile~, f 17;
#X obj 42 464 playAudioFile~, f 17;
#X text 39 27 PLAYING TWO AUDIO FILES AND CONTROL AUDIO EFFECTS;
#X obj 42 698 output~;
#X msg 160 427 array3;
#X msg 580 427 array4;
#X msg 230 427 drumloop3.wav;
#X msg 640 427 drumloop4.wav;
#X connect 0 0 7 0;
#X connect 1 0 7 1;
#X connect 4 0 3 0;
#X connect 5 0 4 0;
#X connect 6 0 12 1;
#X connect 7 0 19 0;
#X connect 7 1 19 1;
#X connect 8 0 11 1;
#X connect 9 0 10 1;
#X connect 10 0 11 0;
#X connect 11 0 12 0;
#X connect 12 0 21 0;
#X connect 13 0 16 0;
#X connect 14 0 16 1;
#X connect 16 0 18 0;
#X connect 16 1 18 1;
#X connect 17 0 10 0;
#X connect 18 0 17 1;
#X connect 19 0 17 0;
#X connect 22 0 19 2;
#X connect 23 0 18 2;
#X connect 24 0 19 3;
#X connect 25 0 18 3;
