#N canvas 120 23 933 708 10;
#X obj 20 279 analogInput0~;
#X obj 311 361 loadbang;
#X msg 131 378 0.1;
#N canvas 0 22 450 278 (subpatch) 0;
#X array array5 82687 float 2;
#X coords 0 1 82687 -1 200 140 1 0 0;
#X restore 22 116 graph;
#X obj 20 466 playAudioFile~;
#X text 56 30 PLAYING AUDIO FILE BASED ON ANALOG SENSOR;
#X obj 791 361 loadbang;
#X msg 611 378 0.1;
#N canvas 0 22 450 278 (subpatch) 0;
#X array array6 330819 float 2;
#X coords 0 1 330819 -1 200 140 1 0 0;
#X restore 502 116 graph;
#X obj 500 413 setSensorThreshold~;
#X obj 500 279 analogInput1~;
#X obj 500 466 playAudioFile~;
#X obj 318 316 scope0~;
#X obj 798 316 scope1~;
#X obj 20 413 setSensorThreshold~;
#X obj 20 578 output~;
#X obj 500 578 output~;
#X msg 124 449 array5;
#X msg 604 449 array6;
#X msg 202 449 synthloop2.wav;
#X msg 702 449 synthloop3.wav;
#X connect 0 0 12 0;
#X connect 0 0 14 0;
#X connect 1 0 2 0;
#X connect 1 0 17 0;
#X connect 1 0 19 0;
#X connect 2 0 14 1;
#X connect 4 0 15 0;
#X connect 6 0 7 0;
#X connect 6 0 18 0;
#X connect 6 0 20 0;
#X connect 7 0 9 1;
#X connect 9 0 11 0;
#X connect 9 1 11 1;
#X connect 10 0 9 0;
#X connect 10 0 13 0;
#X connect 11 0 16 0;
#X connect 14 0 4 0;
#X connect 14 1 4 1;
#X connect 17 0 4 2;
#X connect 18 0 11 2;
#X connect 19 0 4 3;
#X connect 20 0 11 3;
