#N canvas 590 23 1271 984 10;
#X obj 19 108 analogInput0~;
#X obj 199 171 loadbang;
#X obj 19 369 playAudioFile~;
#X text 56 30 PLAYING AUDIO FILE BASED ON ANALOG SENSOR;
#X obj 699 172 loadbang;
#X obj 499 242 setSensorThreshold~;
#X obj 499 108 analogInput1~;
#X obj 499 369 playAudioFile~;
#X obj 84 144 scope0~;
#X obj 564 140 scope1~;
#X obj 19 242 setSensorThreshold~;
#X obj 287 508 output~;
#X msg 701 278 synthloop3.wav;
#X obj 82 319 delay 3;
#X obj 287 458 +~;
#X obj 287 480 *~ 0.5;
#X obj 563 309 delay 3;
#X text 198 133 loadbangs set default values;
#X text 200 146 as messages aren't clickable on Bela;
#X obj 82 341 100;
#X obj 563 331 100;
#X text 623 140 Open the scope to see the sensor values;
#X msg 629 214 0.5;
#X msg 201 278 synthloop1.wav;
#X msg 149 212 0.7;
#X connect 0 0 8 0;
#X connect 0 0 10 0;
#X connect 1 0 24 0;
#X connect 1 0 23 0;
#X connect 1 0 13 0;
#X connect 2 0 14 0;
#X connect 4 0 22 0;
#X connect 4 0 12 0;
#X connect 4 0 16 0;
#X connect 5 0 7 0;
#X connect 5 1 7 1;
#X connect 6 0 5 0;
#X connect 6 0 9 0;
#X connect 7 0 14 1;
#X connect 10 0 2 0;
#X connect 10 1 2 1;
#X connect 12 0 7 4;
#X connect 13 0 19 0;
#X connect 14 0 15 0;
#X connect 15 0 11 0;
#X connect 16 0 20 0;
#X connect 19 0 2 2;
#X connect 20 0 7 2;
#X connect 22 0 5 1;
#X connect 23 0 2 4;
#X connect 24 0 10 1;
