#N canvas 165 23 943 692 10;
#X obj 93 60 vsl 15 128 0 127 0 0 empty empty empty 0 -9 0 10 -262144
-1 -1 0 1;
#X obj 835 646 audioOnOff;
#X obj 835 622 tgl 15 0 empty empty empty 17 7 0 10 -262144 -1 -1 1
1;
#X obj 835 597 loadbang;
#X obj 313 457 hsl 128 15 0 127 0 0 empty empty empty -2 -8 0 10 -262144
-1 -1 0 1;
#X obj 93 212 setThreshold;
#X obj 312 413 hsl 128 15 0 127 0 0 empty empty empty -2 -8 0 10 -262144
-1 -1 0 1;
#X obj 312 369 hsl 128 15 0 127 0 0 empty empty empty -2 -8 0 10 -262144
-1 -1 0 1;
#X obj 467 61 vsl 15 128 0 127 0 0 empty empty empty 0 -9 0 10 -262144
-1 -1 0 1;
#X obj 467 212 setThreshold;
#X obj 94 324 +~;
#X obj 466 303 playAudioFile~, f 17;
#X obj 94 297 playAudioFile~, f 17;
#X text 39 27 PLAYING TWO AUDIO FILES AND CONTROL AUDIO EFFECTS;
#X obj 96 659 output~;
#X msg 282 246 drumloop3.wav;
#X msg 644 252 drumloop4.wav;
#X obj 173 520 vsl 15 128 0 127 0 0 empty empty Master_Volume 0 -9
0 10 -262144 -1 -1 0 1;
#X msg 174 178 0.5;
#X msg 551 180 0.5;
#X text 586 181 << Remember to set the threshold between 0 and 1;
#X text 750 253 << Also set each file being played;
#X msg 152 273 127;
#X msg 525 275 127;
#X text 562 276 << Click to set the track at max volume;
#X obj 215 210 loadbang;
#X obj 215 232 delay 3;
#X obj 195 521 loadbang;
#X text 213 164 The delay is a hack to send;
#X text 214 178 a later bang than a loadbang;
#X text 213 192 in the abstraction.;
#X obj 94 353 *~ 0.5;
#X obj 558 228 loadbang;
#X obj 558 250 delay 3;
#X obj 94 383 echoControlRate~;
#X obj 94 428 flangerControlRate~;
#X obj 94 473 reverbControlRate~;
#X connect 0 0 5 0;
#X connect 2 0 1 0;
#X connect 3 0 2 0;
#X connect 4 0 36 1;
#X connect 5 0 12 0;
#X connect 5 1 12 1;
#X connect 6 0 35 1;
#X connect 7 0 34 1;
#X connect 8 0 9 0;
#X connect 9 0 11 0;
#X connect 9 1 11 1;
#X connect 10 0 31 0;
#X connect 11 0 10 1;
#X connect 12 0 10 0;
#X connect 15 0 12 4;
#X connect 16 0 11 4;
#X connect 17 0 14 1;
#X connect 18 0 5 1;
#X connect 19 0 9 1;
#X connect 22 0 12 2;
#X connect 23 0 11 2;
#X connect 25 0 26 0;
#X connect 26 0 22 0;
#X connect 27 0 17 0;
#X connect 31 0 34 0;
#X connect 32 0 33 0;
#X connect 33 0 23 0;
#X connect 34 0 35 0;
#X connect 35 0 36 0;
#X connect 36 0 14 0;
