#N canvas 39 23 1241 623 10;
#X obj 20 229 analogInput0~;
#X obj 311 311 loadbang;
#X obj 420 528 echoB~;
#X obj 780 518 flangerB~;
#X obj 1150 519 reverbB~;
#N canvas 0 22 450 278 (subpatch) 0;
#X array vocalAudioFile 85248 float 2;
#X coords 0 1 85248 -1 200 140 1 0 0;
#X restore 22 66 graph;
#X obj 20 469 +~;
#X obj 1344 783 audioOnOff;
#X obj 1344 759 tgl 15 0 empty empty empty 17 7 0 10 -262144 -1 -1
1 1;
#X obj 1344 734 loadbang;
#X obj 20 530 filterB~;
#X obj 20 416 playAudioFile~;
#X text 24 12 PLAYING AUDIO FILE AND CONTROL AUDIO EFFECTS BASED ON
ANALOG SENSORS, f 68;
#X obj 20 363 setSensorThreshold~;
#X obj 20 718 output~;
#X msg 262 399 voclaHit0.wav;
#X msg 124 399 vocalAudioFile;
#X obj 711 311 loadbang;
#X msg 531 328 0.1;
#N canvas 0 22 450 278 (subpatch) 0;
#X array array6 165660 float 2;
#X coords 0 1 165660 -1 200 140 1 0 0;
#X restore 422 66 graph;
#X obj 420 363 setSensorThreshold~;
#X obj 420 229 analogInput1~;
#X obj 420 416 playAudioFile~;
#X msg 524 399 array6;
#X msg 622 399 synthloop3.wav;
#X obj 1071 311 loadbang;
#X msg 891 328 0.1;
#N canvas 0 22 450 278 (subpatch) 0;
#X array array7 167086 float 2;
#X coords 0 1 167086 -1 200 140 1 0 0;
#X restore 782 66 graph;
#X obj 780 363 setSensorThreshold~;
#X obj 780 416 playAudioFile~;
#X obj 1441 311 loadbang;
#X msg 1261 328 0.1;
#N canvas 0 22 450 278 (subpatch) 0;
#X array array9 82687 float 2;
#X coords 0 1 82687 -1 200 140 1 0 0;
#X restore 1152 66 graph;
#X obj 1150 363 setSensorThreshold~;
#X obj 1150 416 playAudioFile~;
#X obj 780 229 analogInput2~;
#X obj 1150 229 analogInput3~;
#X msg 884 399 array7;
#X msg 982 399 vocal3.wav;
#X msg 1352 399 drumloop3.wav;
#X msg 1254 399 array9;
#X obj 198 497 analogInput4~;
#X obj 597 493 analogInput5~;
#X obj 957 481 analogInput6~;
#X obj 1327 482 analogInput7~;
#X msg 131 328 0.6;
#X connect 0 0 13 0;
#X connect 1 0 45 0;
#X connect 1 0 16 0;
#X connect 1 0 15 0;
#X connect 2 0 14 0;
#X connect 3 0 14 0;
#X connect 4 0 14 0;
#X connect 6 0 10 0;
#X connect 8 0 7 0;
#X connect 9 0 8 0;
#X connect 10 0 14 0;
#X connect 11 0 6 0;
#X connect 13 0 11 0;
#X connect 13 1 11 1;
#X connect 15 0 11 3;
#X connect 16 0 11 2;
#X connect 17 0 18 0;
#X connect 17 0 23 0;
#X connect 17 0 24 0;
#X connect 18 0 20 1;
#X connect 20 0 22 0;
#X connect 20 1 22 1;
#X connect 21 0 20 0;
#X connect 22 0 2 0;
#X connect 23 0 22 2;
#X connect 24 0 22 3;
#X connect 25 0 26 0;
#X connect 25 0 37 0;
#X connect 25 0 38 0;
#X connect 26 0 28 1;
#X connect 28 0 29 0;
#X connect 28 1 29 1;
#X connect 29 0 3 0;
#X connect 30 0 31 0;
#X connect 30 0 40 0;
#X connect 30 0 39 0;
#X connect 31 0 33 1;
#X connect 33 0 34 0;
#X connect 33 1 34 1;
#X connect 34 0 4 0;
#X connect 35 0 28 0;
#X connect 36 0 33 0;
#X connect 37 0 29 2;
#X connect 38 0 29 3;
#X connect 39 0 34 3;
#X connect 40 0 34 2;
#X connect 41 0 10 1;
#X connect 42 0 2 1;
#X connect 43 0 3 1;
#X connect 44 0 4 1;
#X connect 45 0 13 1;
