#N canvas 91 58 1185 755 10;
#X obj 20 279 analogInput0~;
#X obj 311 361 loadbang;
#X msg 131 378 0.1;
#N canvas 0 22 450 278 (subpatch) 0;
#X array drumAudioFile 82687 float 2;
#X coords 0 1 82687 -1 200 140 1 0 0;
#X restore 22 116 graph;
#X obj 1055 690 audioOnOff;
#X obj 1055 666 tgl 15 0 empty empty empty 17 7 0 10 -262144 -1 -1
1 1;
#X obj 1055 641 loadbang;
#X obj 20 466 playAudioFile~;
#X text 56 30 PLAYING AUDIO FILE BASED ON ANALOG SENSOR;
#X msg 124 439 drumAudioFile;
#X obj 318 306 scope0~;
#X obj 140 509 analogInput1~;
#X obj 140 538 scope1~;
#X obj 20 413 setSensorThreshold~;
#X obj 20 557 reverbB~;
#X obj 20 638 output~;
#X msg 262 439 drumloop7.wav;
#X connect 0 0 10 0;
#X connect 0 0 13 0;
#X connect 1 0 2 0;
#X connect 1 0 9 0;
#X connect 1 0 16 0;
#X connect 2 0 13 1;
#X connect 5 0 4 0;
#X connect 6 0 5 0;
#X connect 7 0 14 0;
#X connect 9 0 7 2;
#X connect 11 0 12 0;
#X connect 11 0 14 1;
#X connect 13 0 7 0;
#X connect 13 1 7 1;
#X connect 14 0 15 0;
#X connect 16 0 7 3;
