#N canvas 293 23 625 568 10;
#X obj 48 85 analogInput0~;
#X obj 260 150 loadbang;
#X obj 467 451 audioOnOff;
#X obj 467 427 tgl 15 0 empty empty empty 17 7 0 10 -262144 -1 -1 1
1;
#X obj 467 402 loadbang;
#X obj 48 317 playAudioFile~;
#X obj 104 114 scope0~;
#X obj 151 356 analogInput1~;
#X obj 151 385 scope1~;
#X obj 48 219 setSensorThreshold~;
#X obj 48 407 reverbB~;
#X obj 48 444 output~;
#X msg 164 293 drumloop7.wav;
#X text 56 30 PLAYING AUDIO FILE AND EFFECT BASED ON ANALOG SENSOR
;
#X msg 178 187 0.5;
#X obj 114 259 delay 3;
#X obj 114 281 100;
#X text 254 357 Sensor controls the effect;
#X text 167 115 Open the scope to see the sensor values;
#X connect 0 0 6 0;
#X connect 0 0 9 0;
#X connect 1 0 14 0;
#X connect 1 0 12 0;
#X connect 1 0 15 0;
#X connect 3 0 2 0;
#X connect 4 0 3 0;
#X connect 5 0 10 0;
#X connect 7 0 8 0;
#X connect 7 0 10 1;
#X connect 9 0 5 0;
#X connect 9 1 5 1;
#X connect 10 0 11 0;
#X connect 12 0 5 4;
#X connect 14 0 9 1;
#X connect 15 0 16 0;
#X connect 16 0 5 2;
