#N canvas 1473 70 1383 657 10;
#X obj 20 66 analogInput0~;
#X obj 179 133 loadbang;
#X obj 1224 542 audioOnOff;
#X obj 1224 518 tgl 15 0 empty empty empty 17 7 0 10 -262144 -1 -1
1 1;
#X obj 1224 493 loadbang;
#X obj 20 332 playAudioFile~;
#X text 24 12 PLAYING AUDIO FILE AND CONTROL AUDIO EFFECTS BASED ON
ANALOG SENSORS, f 68;
#X obj 20 200 setSensorThreshold~;
#X obj 572 547 output~;
#X msg 171 261 voclaHit0.wav;
#X obj 500 108 loadbang;
#X obj 329 203 setSensorThreshold~;
#X obj 329 69 analogInput1~;
#X obj 329 335 playAudioFile~;
#X msg 531 239 synthloop3.wav;
#X obj 883 120 loadbang;
#X obj 685 205 setSensorThreshold~;
#X obj 685 331 playAudioFile~;
#X obj 1164 144 loadbang;
#X obj 1023 212 setSensorThreshold~;
#X obj 1023 340 playAudioFile~;
#X obj 685 71 analogInput2~;
#X obj 1023 78 analogInput3~;
#X msg 887 241 vocal3.wav;
#X msg 1225 248 drumloop3.wav;
#X obj 156 339 analogInput4~;
#X obj 506 333 analogInput5~;
#X obj 862 323 analogInput6~;
#X obj 1200 331 analogInput7~;
#X obj 78 275 delay 3;
#X obj 78 297 100;
#X obj 171 428 +~;
#X obj 380 278 delay 3;
#X obj 380 300 100;
#X msg 440 168 0.5;
#X msg 131 165 0.5;
#X obj 927 432 +~;
#X obj 927 460 *~ 0.5;
#X obj 171 450 *~ 0.5;
#X obj 572 494 +~;
#X obj 572 516 *~ 0.5;
#X msg 798 170 0.5;
#X msg 1133 176 0.5;
#X obj 750 267 delay 3;
#X obj 750 289 100;
#X obj 1081 280 delay 3;
#X obj 1081 302 100;
#X text 110 299 Volume from 0 to 127;
#X obj 20 367 filterAudioRate~;
#X obj 329 368 echoAudioRate~;
#X obj 685 360 flangerAudioRate~;
#X obj 1023 368 reverbAudioRate~;
#X connect 0 0 7 0;
#X connect 1 0 35 0;
#X connect 1 0 9 0;
#X connect 1 0 29 0;
#X connect 3 0 2 0;
#X connect 4 0 3 0;
#X connect 5 0 48 0;
#X connect 7 0 5 0;
#X connect 7 1 5 1;
#X connect 9 0 5 4;
#X connect 10 0 34 0;
#X connect 10 0 14 0;
#X connect 10 0 32 0;
#X connect 11 0 13 0;
#X connect 11 1 13 1;
#X connect 12 0 11 0;
#X connect 13 0 49 0;
#X connect 14 0 13 4;
#X connect 15 0 41 0;
#X connect 15 0 23 0;
#X connect 15 0 43 0;
#X connect 16 0 17 0;
#X connect 16 1 17 1;
#X connect 17 0 50 0;
#X connect 18 0 42 0;
#X connect 18 0 24 0;
#X connect 18 0 45 0;
#X connect 19 0 20 0;
#X connect 19 1 20 1;
#X connect 20 0 51 0;
#X connect 21 0 16 0;
#X connect 22 0 19 0;
#X connect 23 0 17 4;
#X connect 24 0 20 4;
#X connect 25 0 48 1;
#X connect 26 0 49 1;
#X connect 27 0 50 1;
#X connect 28 0 51 1;
#X connect 29 0 30 0;
#X connect 30 0 5 2;
#X connect 31 0 38 0;
#X connect 32 0 33 0;
#X connect 33 0 13 2;
#X connect 34 0 11 1;
#X connect 35 0 7 1;
#X connect 36 0 37 0;
#X connect 37 0 39 1;
#X connect 38 0 39 0;
#X connect 39 0 40 0;
#X connect 40 0 8 0;
#X connect 41 0 16 1;
#X connect 42 0 19 1;
#X connect 43 0 44 0;
#X connect 44 0 17 2;
#X connect 45 0 46 0;
#X connect 46 0 20 2;
#X connect 48 0 31 0;
#X connect 49 0 31 1;
#X connect 50 0 36 0;
#X connect 51 0 36 1;
